<svg xmlns="http://www.w3.org/2000/svg" width="1114" height="941" viewBox="0 0 1114 941">
<g>
<path d="M 500.72 438.75 C498.34,441.34 493.41,441.75 490.47,439.60 C488.59,438.23 488.60,438.08 490.93,432.35 C498.65,413.43 509.73,394.50 524.77,374.54 C553.84,335.96 582.38,301.15 605.77,275.71 C616.07,264.51 633.78,245.25 645.13,232.92 C670.43,205.43 674.52,200.60 685.12,185.80 C697.37,168.70 705.49,154.65 713.61,136.54 C727.91,104.65 731.01,92.71 731.67,67.03 C731.91,57.42 732.32,49.35 732.57,49.09 C735.25,46.41 737.96,62.44 738.64,85.00 C739.18,102.93 739.10,103.96 736.08,118.50 C734.36,126.75 732.73,134.24 732.45,135.15 C731.85,137.06 751.94,147.86 819.50,181.91 C861.74,203.21 868.00,207.06 868.00,211.81 C868.00,212.82 866.99,214.57 865.75,215.69 C863.67,217.57 831.08,235.00 829.64,235.00 C829.29,235.00 829.00,231.74 829.00,227.75 C829.00,219.49 826.97,214.26 823.00,212.28 C818.96,210.26 809.04,210.68 805.19,213.03 C800.09,216.14 798.84,220.41 798.69,235.23 L 798.56 248.08 L 720.97 287.50 L 721.64 343.05 C722.01,373.60 722.01,399.84 721.62,401.36 C721.24,402.88 719.11,406.09 716.89,408.50 C708.54,417.56 696.00,423.45 674.11,428.60 C653.91,433.35 622.32,438.93 611.43,439.66 L 602.36 440.28 L 597.62 432.89 C591.22,422.92 587.02,413.82 582.20,399.50 C574.73,377.30 571.01,358.10 572.39,348.89 C572.77,346.37 574.80,340.87 576.91,336.67 C580.06,330.40 580.51,328.84 579.40,327.91 C576.41,325.44 571.72,330.41 553.32,355.52 C527.79,390.35 519.43,403.14 510.53,421.00 C506.27,429.52 501.86,437.51 500.72,438.75 ZM 475.00 437.62 C475.00,438.53 473.89,438.97 471.75,438.91 C467.17,438.78 434.38,431.83 423.00,428.58 C406.59,423.88 392.45,415.77 387.26,408.06 C381.87,400.06 381.74,398.61 381.56,343.00 C381.44,304.78 381.09,290.93 380.19,289.29 C379.52,288.08 377.49,285.95 375.69,284.57 C373.88,283.20 342.72,267.26 306.45,249.17 C270.18,231.08 239.67,215.34 238.66,214.21 C234.00,208.98 238.11,205.91 275.50,186.64 C386.22,129.58 396.53,124.11 398.10,121.56 C399.15,119.85 399.92,115.36 400.34,108.49 C401.29,92.93 402.16,86.64 403.13,88.18 C403.59,88.90 403.98,91.25 403.98,93.38 C404.01,99.45 406.88,116.59 409.54,126.56 C414.92,146.71 432.60,180.91 455.18,214.83 C469.24,235.96 473.18,247.13 473.21,266.00 C473.23,275.89 472.53,280.99 468.19,302.50 C460.73,339.48 459.44,351.18 460.94,368.50 C463.62,399.60 467.28,419.38 472.45,430.67 C473.85,433.73 475.00,436.86 475.00,437.62 ZM 569.00 875.12 C565.04,876.66 560.70,877.36 553.50,877.61 C537.75,878.15 529.12,875.08 518.80,865.23 C508.64,855.54 504.34,843.67 505.25,827.78 C505.89,816.56 510.18,806.91 518.03,799.07 C534.44,782.66 562.45,780.71 580.84,794.70 C586.18,798.76 592.79,808.56 594.99,815.70 C597.73,824.58 597.73,838.42 594.99,847.30 C591.23,859.47 580.98,870.45 569.00,875.12 ZM 631.62 874.64 L 632.22 877.00 L 622.04 877.00 C612.81,877.00 611.92,876.84 612.41,875.25 C615.99,863.76 615.94,800.78 612.34,788.63 C611.81,786.84 612.48,786.77 627.14,787.22 C639.53,787.59 643.65,788.10 648.45,789.84 C661.37,794.51 667.54,806.30 663.92,819.35 C662.67,823.86 656.59,830.83 651.54,833.55 C649.59,834.60 648.00,835.83 648.00,836.28 C648.00,838.74 668.25,865.10 675.40,871.95 C677.38,873.84 679.00,875.75 679.00,876.20 C679.00,876.64 675.48,877.00 671.17,877.00 L 663.35 877.00 L 655.85 869.25 C649.18,862.36 635.42,845.73 630.80,838.98 C629.16,836.58 629.10,836.84 629.07,847.50 C629.04,857.49 630.07,868.46 631.62,874.64 ZM 543.99 866.12 C548.54,867.61 561.15,866.51 565.50,864.25 C570.54,861.63 576.09,855.83 579.14,850.00 C581.22,846.03 581.50,844.14 581.50,834.00 C581.50,823.62 581.24,821.94 578.82,816.78 C575.45,809.59 568.19,801.75 562.21,798.86 C555.02,795.38 543.94,795.69 536.33,799.58 C529.34,803.16 523.66,810.12 521.35,817.94 C519.04,825.79 519.93,838.64 523.31,846.22 C527.38,855.33 535.80,863.44 543.99,866.12 ZM 388.46 875.12 C384.88,876.71 381.05,877.39 374.51,877.63 C359.60,878.17 353.42,874.90 347.69,863.44 C343.78,855.63 342.77,847.51 342.46,821.50 C342.30,808.30 341.69,795.70 341.11,793.50 C341.06,793.30 341.00,793.11 340.95,792.92 C340.27,790.35 339.88,788.90 340.43,788.08 C341.16,787.00 343.50,787.00 348.90,787.00 C349.20,787.00 349.51,787.00 349.83,787.00 L 359.66 787.00 L 358.27 793.75 C356.53,802.17 356.96,846.45 358.83,852.12 C361.97,861.65 369.13,867.00 378.74,867.00 C385.51,867.00 389.71,865.23 393.68,860.71 C398.66,855.04 399.26,850.13 398.69,820.00 C398.41,805.42 397.86,792.04 397.48,790.25 L 396.77 787.00 L 416.22 787.00 L 415.54 789.68 C412.07,803.54 412.13,860.73 415.64,874.72 C416.20,876.94 416.03,877.00 408.61,877.00 L 401.00 877.00 L 401.00 872.50 C401.00,870.03 400.74,868.00 400.43,868.00 C400.12,868.00 398.41,869.11 396.63,870.47 C394.85,871.83 391.17,873.92 388.46,875.12 ZM 716.50 875.13 C709.56,878.25 695.56,878.78 688.50,876.20 L 683.50 874.37 L 683.21 865.44 L 682.91 856.51 L 686.71 860.21 C695.78,869.04 707.31,869.36 714.38,860.96 C716.35,858.61 717.00,856.74 717.00,853.37 C717.00,849.46 716.45,848.31 712.75,844.41 C710.41,841.95 704.47,836.92 699.54,833.22 C693.69,828.83 689.56,824.85 687.64,821.74 C680.01,809.38 685.26,794.11 699.27,787.92 C705.45,785.19 717.94,784.78 724.50,787.10 L 728.50 788.51 L 728.64 796.26 C728.72,800.52 728.61,804.00 728.40,804.00 C728.19,804.00 726.03,802.48 723.60,800.63 C715.77,794.65 706.27,795.02 701.17,801.51 C699.98,803.03 699.00,805.58 699.00,807.18 C699.00,813.20 701.92,816.55 718.15,829.15 C728.48,837.16 732.01,842.97 731.99,851.95 C731.97,862.23 726.29,870.75 716.50,875.13 ZM 473.58 875.25 C474.08,876.84 473.19,877.00 463.96,877.00 L 453.78 877.00 L 454.39 874.57 C456.07,867.89 456.97,850.75 456.98,825.11 L 457.00 796.71 L 448.25 797.38 C443.44,797.74 437.02,798.70 434.00,799.51 C430.98,800.32 428.42,800.98 428.32,800.99 C428.21,800.99 429.16,797.96 430.41,794.25 L 432.68 787.50 L 465.95 787.24 C492.43,787.03 499.13,787.23 498.75,788.24 C498.49,788.93 497.51,792.13 496.58,795.34 C495.19,800.15 494.60,801.05 493.20,800.45 C488.85,798.58 481.08,797.00 476.28,797.00 L 471.00 797.00 L 471.00 829.86 C471.00,858.86 471.57,868.84 473.58,875.25 ZM 304.59 873.25 L 305.26 877.00 L 285.77 877.00 L 286.39 874.25 C288.56,864.59 289.92,801.11 288.02,798.04 C287.02,796.42 274.52,797.20 265.94,799.43 C262.95,800.20 260.39,800.73 260.26,800.59 C259.64,799.97 264.37,787.80 265.38,787.41 C266.00,787.17 280.97,787.09 298.64,787.24 L 330.77 787.50 L 328.78 794.00 C327.69,797.58 326.66,800.64 326.51,800.81 C326.35,800.98 324.48,800.37 322.36,799.47 C320.24,798.56 314.79,797.57 310.25,797.27 L 302.00 796.72 L 302.03 821.11 C302.06,844.05 303.08,864.74 304.59,873.25 ZM 629.00 796.00 L 629.00 832.04 L 631.75 831.43 C641.21,829.34 644.99,826.90 648.03,820.95 C653.96,809.31 645.03,796.04 631.25,796.01 Z" fill="rgb(28,106,153)"/>
<path d="M 588.81 735.60 L 585.50 741.99 L 552.87 742.00 L 520.24 742.00 L 519.09 739.22 C515.17,729.74 504.22,718.16 494.62,713.31 C485.50,708.71 466.92,702.60 454.34,700.05 C434.55,696.05 419.04,694.81 389.50,694.86 C322.63,694.97 265.34,701.25 164.96,719.50 C94.13,732.37 75.70,735.08 49.25,736.54 C40.75,737.01 37.00,736.89 37.00,736.14 C37.00,735.55 40.71,730.61 45.25,725.15 C49.79,719.70 58.26,709.45 64.07,702.37 C69.88,695.29 89.43,671.50 107.51,649.50 C125.58,627.50 150.73,596.90 163.37,581.50 C176.02,566.10 189.94,549.17 194.29,543.88 L 202.22 534.25 L 208.36 533.67 C211.74,533.35 222.60,532.36 232.50,531.47 C242.40,530.58 251.48,529.66 252.67,529.43 C254.02,529.16 257.18,525.69 261.01,520.25 C277.25,497.17 311.02,448.41 311.27,447.67 C311.86,445.95 378.14,454.37 405.50,459.63 C432.77,464.88 448.48,469.45 473.00,479.27 C503.00,491.29 526.26,505.43 545.79,523.51 L 553.07 530.25 L 559.28 524.33 C573.96,510.36 592.58,497.86 613.50,487.95 C657.37,467.17 693.25,458.41 770.99,449.50 L 793.47 446.93 L 795.49 449.65 C797.49,452.36 824.28,490.83 836.82,509.00 C848.27,525.59 850.99,528.96 853.27,529.42 C854.50,529.66 866.22,530.82 879.33,531.99 L 903.16 534.11 L 905.93 537.30 C907.46,539.06 913.14,545.90 918.55,552.50 C935.69,573.39 982.80,630.71 1000.33,652.00 C1009.61,663.28 1025.87,683.08 1036.47,696.00 C1047.07,708.92 1058.69,723.09 1062.29,727.48 C1065.89,731.86 1068.60,735.85 1068.30,736.33 C1067.74,737.24 1055.31,736.67 1036.50,734.88 C1020.92,733.40 999.44,730.02 958.27,722.56 C838.67,700.89 787.18,694.99 716.50,694.86 C677.28,694.79 654.82,697.67 629.88,705.98 C606.66,713.71 596.24,721.22 588.81,735.60 ZM 542.83 688.14 C544.72,693.00 545.04,681.92 544.78,619.75 L 544.50 550.50 L 542.24 545.90 C531.49,524.10 480.52,493.84 434.00,481.64 C403.55,473.66 344.27,463.99 326.00,464.03 L 321.50 464.04 L 301.84 493.77 C220.56,616.72 207.99,635.85 207.26,637.76 C206.82,638.91 207.32,639.10 209.60,638.63 C222.65,635.95 286.80,632.69 326.50,632.69 C391.26,632.68 439.53,638.67 479.50,651.66 C492.60,655.91 513.74,665.81 523.54,672.26 C530.47,676.83 542.18,686.47 542.83,688.14 ZM 561.01 619.75 C561.00,657.29 561.26,688.00 561.57,688.00 C561.89,688.00 565.15,685.45 568.82,682.33 C596.51,658.80 640.57,643.44 700.00,636.59 C749.94,630.83 830.85,631.55 896.19,638.32 C897.11,638.42 897.88,638.05 897.89,637.50 C897.91,636.44 892.76,628.51 846.21,558.00 C830.06,533.53 809.56,502.40 800.67,488.82 L 784.50 464.15 L 780.00 464.08 C769.86,463.94 727.99,469.78 701.00,475.10 C665.78,482.06 639.52,491.05 613.00,505.24 C589.06,518.05 568.81,534.76 563.56,546.03 L 561.02 551.50 ZM 89.73 709.75 C89.05,710.62 89.18,711.00 90.13,710.99 C92.29,710.99 112.62,707.47 150.50,700.54 C215.58,688.63 254.32,682.77 292.50,679.05 C304.05,677.93 315.75,676.78 318.50,676.50 C343.58,673.94 412.27,673.02 433.00,674.97 C464.16,677.89 496.20,685.56 513.35,694.20 C520.20,697.66 518.19,695.51 508.65,689.20 C479.90,670.19 442.04,658.77 389.59,653.28 C369.61,651.20 305.69,650.92 281.50,652.81 C246.30,655.57 204.60,660.60 166.81,666.65 L 162.56 667.33 L 164.42 664.41 C166.25,661.56 176.30,646.80 218.49,585.00 C229.95,568.22 240.67,552.52 242.31,550.10 L 245.31 545.69 L 234.90 546.39 C216.59,547.62 218.30,546.79 208.35,559.37 C203.51,565.49 194.54,576.80 188.44,584.50 C179.94,595.21 94.70,703.37 89.73,709.75 ZM 1002.00 708.89 C1014.07,711.10 1016.01,711.29 1015.99,710.25 C1015.98,709.84 1003.49,693.70 988.24,674.38 C916.85,584.00 890.42,550.53 889.50,549.31 C888.88,548.50 884.34,547.62 877.50,546.99 C871.45,546.43 865.22,545.76 863.64,545.49 C861.45,545.12 860.92,545.34 861.34,546.45 C861.65,547.24 871.67,562.20 883.62,579.69 C924.61,639.68 941.94,665.09 942.62,666.20 C943.11,666.98 942.16,667.12 939.41,666.66 C929.32,664.97 892.81,659.88 878.00,658.08 C759.49,643.75 668.72,651.38 612.46,680.42 C601.96,685.84 589.03,693.99 589.01,695.21 C589.01,695.60 591.93,694.60 595.50,693.00 C615.23,684.15 641.83,678.04 674.00,674.96 C698.57,672.61 758.89,673.86 799.00,677.55 C852.77,682.50 884.96,687.47 1002.00,708.89 ZM 833.55 404.47 C828.36,407.06 826.37,407.48 818.05,407.68 C801.15,408.10 787.40,404.01 784.38,397.67 C782.86,394.48 783.07,393.57 794.46,355.18 L 806.09 315.95 L 802.65 312.70 C795.81,306.26 795.79,296.01 802.59,289.21 L 806.00 285.80 L 806.00 258.03 C806.00,231.46 806.09,230.16 808.07,227.63 C811.00,223.91 817.00,223.91 819.93,227.63 C821.91,230.16 822.00,231.45 822.00,258.53 C822.00,282.36 822.23,286.87 823.46,287.35 C824.26,287.65 826.06,289.72 827.46,291.93 C831.84,298.87 830.44,308.47 824.28,313.65 L 821.73 315.79 L 823.97 324.15 C827.45,337.05 839.62,376.98 841.93,383.06 C845.94,393.60 843.66,399.42 833.55,404.47 ZM 63.62 874.64 C64.22,877.00 64.22,877.00 54.50,877.00 L 44.78 877.00 L 45.47 873.25 C45.85,871.19 46.39,853.40 46.66,833.73 L 47.16 797.96 L 43.08 793.09 C40.83,790.41 39.00,787.95 39.00,787.61 C39.00,787.28 43.46,787.00 48.90,787.00 L 58.80 787.00 L 59.82 789.91 C60.71,792.48 90.93,830.43 91.55,829.76 C95.96,825.09 119.58,794.27 121.07,791.25 L 123.18 787.00 L 141.66 787.00 L 135.50 799.42 L 135.50 831.96 C135.50,849.86 135.88,867.31 136.35,870.75 L 137.20 877.00 L 117.75 877.00 L 118.42 873.75 C120.42,863.97 121.05,853.31 120.79,834.03 L 120.50 812.55 L 106.00 831.23 C98.03,841.51 91.28,849.91 91.00,849.91 C90.72,849.90 84.20,842.07 76.50,832.51 C68.80,822.94 62.16,815.09 61.75,815.06 C61.34,815.03 61.01,824.79 61.02,836.75 C61.04,856.16 61.81,867.41 63.62,874.64 ZM 802.63 874.25 L 803.23 877.00 L 794.05 877.00 C785.68,877.00 784.92,876.84 785.43,875.21 C787.15,869.81 787.94,855.34 787.97,829.06 L 788.00 799.63 L 784.24 795.06 C783.57,794.25 782.96,793.52 782.41,792.86 C779.93,789.90 778.69,788.42 779.04,787.68 C779.39,786.94 781.33,786.96 785.24,786.99 C786.10,787.00 787.07,787.01 788.13,787.01 L 798.50 787.02 L 800.50 790.51 C803.65,796.00 845.41,853.93 846.25,853.97 C848.25,854.06 846.74,801.25 844.43,790.25 L 843.75 787.00 L 852.89 787.00 C861.86,787.00 862.03,787.04 861.53,789.25 C857.94,805.10 857.99,863.30 861.61,875.25 C862.08,876.83 861.24,877.00 853.07,877.00 C848.08,877.00 844.00,876.62 844.00,876.15 C844.00,874.63 833.69,859.91 816.95,837.50 L 800.50 815.50 L 800.20 832.50 C799.94,847.86 801.05,867.04 802.63,874.25 ZM 931.67 868.60 L 928.30 876.50 L 904.56 876.77 L 880.81 877.04 L 881.65 871.77 C882.99,863.45 882.72,795.20 881.33,790.75 L 880.16 787.00 L 930.03 787.00 L 926.57 793.87 L 923.11 800.73 L 917.81 798.90 C914.49,797.75 909.59,797.05 904.75,797.03 L 897.00 797.00 L 897.00 826.00 L 911.50 826.00 C919.47,826.00 926.00,826.26 926.00,826.59 C926.00,827.31 918.94,840.00 918.54,840.00 C918.38,840.00 916.37,839.33 914.06,838.52 C911.75,837.71 906.97,836.75 903.43,836.38 L 897.00 835.72 L 897.00 867.00 L 900.25 866.99 C908.05,866.97 921.48,864.79 927.69,862.54 C931.40,861.19 934.57,860.23 934.73,860.40 C934.90,860.57 933.53,864.26 931.67,868.60 ZM 976.56 874.73 C969.69,878.22 955.94,878.94 948.50,876.21 L 943.50 874.37 L 943.21 866.19 C942.94,858.67 943.90,855.70 945.36,859.50 C945.68,860.33 948.07,862.35 950.67,864.00 C959.83,869.82 971.09,867.40 975.35,858.69 C979.02,851.22 975.95,845.62 963.03,836.20 C947.45,824.85 943.99,820.03 944.02,809.79 C944.06,798.84 949.63,791.02 959.87,787.53 C965.66,785.55 979.89,785.51 984.53,787.45 L 988.00 788.90 L 988.00 796.45 C988.00,800.60 987.62,804.00 987.15,804.00 C986.69,804.00 985.45,803.05 984.41,801.90 C981.32,798.49 976.89,796.71 971.47,796.71 C965.36,796.71 962.53,798.09 959.95,802.31 C955.57,809.50 958.08,813.89 973.45,825.93 C987.52,836.94 990.31,840.80 990.83,849.95 C991.05,853.81 990.68,858.45 989.99,860.54 C988.30,865.65 982.63,871.65 976.56,874.73 ZM 192.98 876.75 C192.99,876.89 188.67,877.00 183.39,877.00 L 173.77 877.00 L 174.46 873.75 C174.84,871.96 175.38,862.58 175.67,852.89 L 176.19 835.28 L 170.44 824.39 C162.56,809.46 155.65,798.00 150.92,792.02 L 146.95 787.00 L 157.48 787.00 C167.82,787.00 168.00,787.04 168.00,789.32 C168.00,791.59 173.31,803.06 180.30,815.90 L 183.78 822.29 L 189.92 811.90 C193.29,806.18 197.03,798.24 198.23,794.25 L 200.40 787.00 L 219.17 787.00 L 217.05 789.75 C210.78,797.92 205.86,805.93 198.35,820.18 L 190.00 836.01 L 190.03 848.25 C190.05,854.99 190.72,864.10 191.52,868.50 C192.31,872.90 192.97,876.61 192.98,876.75 ZM 1044.51 873.75 L 1045.23 877.00 L 1025.78 877.00 L 1026.46 874.32 C1028.24,867.22 1028.99,852.99 1028.99,826.10 L 1029.00 796.70 L 1020.75 797.36 C1016.21,797.72 1009.91,798.63 1006.75,799.38 C1000.07,800.96 999.99,800.82 1002.91,792.50 L 1004.67 787.50 L 1037.95 787.24 C1064.43,787.03 1071.13,787.23 1070.76,788.24 C1070.50,788.93 1069.49,791.97 1068.51,795.00 C1067.53,798.03 1066.67,800.58 1066.60,800.68 C1066.54,800.77 1064.01,800.00 1060.99,798.96 C1057.93,797.90 1052.70,797.05 1049.17,797.03 L 1042.85 797.00 L 1043.32 833.75 C1043.58,853.96 1044.12,871.96 1044.51,873.75 Z" fill="rgb(48,47,48)"/>
<path d="M 562.21 220.87 C556.87,224.09 549.35,228.32 545.50,230.25 L 538.50 233.78 L 534.00 230.70 C519.36,220.69 494.41,197.35 483.56,183.50 C463.38,157.74 408.00,73.96 408.00,69.19 C408.00,66.70 411.28,70.27 423.75,86.33 C430.09,94.49 435.80,101.37 436.46,101.62 C437.11,101.87 462.14,90.27 492.07,75.84 L 546.50 49.60 L 554.50 49.55 C560.64,49.51 563.43,49.97 566.50,51.53 C576.97,56.86 613.28,75.68 619.50,79.01 C623.35,81.06 637.60,88.44 651.17,95.40 L 675.85 108.05 L 690.81 91.78 C699.05,82.82 707.45,73.47 709.50,71.00 C716.44,62.60 716.52,64.90 709.76,78.50 C695.74,106.69 683.37,121.93 649.00,153.42 C616.81,182.91 588.00,205.30 562.21,220.87 Z" fill="rgb(251,190,19)"/>
<path d="M 0.00 470.50 L 0.00 0.00 L 557.00 0.00 L 1114.00 0.00 L 1114.00 470.50 L 1114.00 941.00 L 557.00 941.00 L 0.00 941.00 L 0.00 470.50 ZM 388.46 875.12 C391.17,873.92 394.85,871.83 396.63,870.47 C398.41,869.11 400.12,868.00 400.43,868.00 C400.74,868.00 401.00,870.03 401.00,872.50 L 401.00 877.00 L 408.61 877.00 C416.03,877.00 416.20,876.94 415.64,874.72 C412.13,860.73 412.07,803.54 415.54,789.68 L 416.22 787.00 L 406.49 787.00 L 396.77 787.00 L 397.48 790.25 C397.86,792.04 398.41,805.42 398.69,820.00 C399.26,850.13 398.66,855.04 393.68,860.71 C389.71,865.23 385.51,867.00 378.74,867.00 C369.13,867.00 361.97,861.65 358.83,852.12 C356.96,846.45 356.53,802.17 358.27,793.75 L 359.66 787.00 L 349.83 787.00 C339.06,787.00 339.33,786.79 341.11,793.50 C341.69,795.70 342.30,808.30 342.46,821.50 C342.77,847.51 343.78,855.63 347.69,863.44 C353.42,874.90 359.60,878.17 374.51,877.63 C381.05,877.39 384.88,876.71 388.46,875.12 ZM 569.00 875.12 C580.98,870.45 591.23,859.47 594.99,847.30 C597.73,838.42 597.73,824.58 594.99,815.70 C592.79,808.56 586.18,798.76 580.84,794.70 C562.45,780.71 534.44,782.66 518.03,799.07 C510.18,806.91 505.89,816.56 505.25,827.78 C504.34,843.67 508.64,855.54 518.80,865.23 C529.12,875.08 537.75,878.15 553.50,877.61 C560.70,877.36 565.04,876.66 569.00,875.12 ZM 716.50 875.13 C726.29,870.75 731.97,862.23 731.99,851.95 C732.01,842.97 728.48,837.16 718.15,829.15 C701.92,816.55 699.00,813.20 699.00,807.18 C699.00,805.58 699.98,803.03 701.17,801.51 C706.27,795.02 715.77,794.65 723.60,800.63 C726.03,802.48 728.19,804.00 728.40,804.00 C728.61,804.00 728.72,800.52 728.64,796.26 L 728.50 788.51 L 724.50 787.10 C717.94,784.78 705.45,785.19 699.27,787.92 C685.26,794.11 680.01,809.38 687.64,821.74 C689.56,824.85 693.69,828.83 699.54,833.22 C704.47,836.92 710.41,841.95 712.75,844.41 C716.45,848.31 717.00,849.46 717.00,853.37 C717.00,856.74 716.35,858.61 714.38,860.96 C707.31,869.36 695.78,869.04 686.71,860.21 L 682.91 856.51 L 683.21 865.44 L 683.50 874.37 L 688.50 876.20 C695.56,878.78 709.56,878.25 716.50,875.13 ZM 976.56 874.73 C982.63,871.65 988.30,865.65 989.99,860.54 C990.68,858.45 991.05,853.81 990.83,849.95 C990.31,840.80 987.52,836.94 973.45,825.93 C958.08,813.89 955.57,809.50 959.95,802.31 C962.53,798.09 965.36,796.71 971.47,796.71 C976.89,796.71 981.32,798.49 984.41,801.90 C985.45,803.05 986.69,804.00 987.15,804.00 C987.62,804.00 988.00,800.60 988.00,796.45 L 988.00 788.90 L 984.53 787.45 C979.89,785.51 965.66,785.55 959.87,787.53 C949.63,791.02 944.06,798.84 944.02,809.79 C943.99,820.03 947.45,824.85 963.03,836.20 C975.95,845.62 979.02,851.22 975.35,858.69 C971.09,867.40 959.83,869.82 950.67,864.00 C948.07,862.35 945.68,860.33 945.36,859.50 C943.90,855.70 942.94,858.67 943.21,866.19 L 943.50 874.37 L 948.50 876.21 C955.94,878.94 969.69,878.22 976.56,874.73 ZM 63.62 874.64 C61.81,867.41 61.04,856.16 61.02,836.75 C61.01,824.79 61.34,815.03 61.75,815.06 C62.16,815.09 68.80,822.94 76.50,832.51 C84.20,842.07 90.72,849.90 91.00,849.91 C91.28,849.91 98.03,841.51 106.00,831.23 L 120.50 812.55 L 120.79 834.03 C121.05,853.31 120.42,863.97 118.42,873.75 L 117.75 877.00 L 127.47 877.00 L 137.20 877.00 L 136.35 870.75 C135.88,867.31 135.50,849.86 135.50,831.96 L 135.50 799.42 L 138.58 793.21 L 141.66 787.00 L 132.42 787.00 L 123.18 787.00 L 121.07 791.25 C119.58,794.27 95.96,825.09 91.55,829.76 C90.93,830.43 60.71,792.48 59.82,789.91 L 58.80 787.00 L 48.90 787.00 C43.46,787.00 39.00,787.28 39.00,787.61 C39.00,787.95 40.83,790.41 43.08,793.09 L 47.16 797.96 L 46.66 833.73 C46.39,853.40 45.85,871.19 45.47,873.25 L 44.78 877.00 L 54.50 877.00 C64.22,877.00 64.22,877.00 63.62,874.64 ZM 192.98 876.75 C192.97,876.61 192.31,872.90 191.52,868.50 C190.72,864.10 190.05,854.99 190.03,848.25 L 190.00 836.01 L 198.35 820.18 C205.86,805.93 210.78,797.92 217.05,789.75 L 219.17 787.00 L 209.78 787.00 L 200.40 787.00 L 198.23 794.25 C197.03,798.24 193.29,806.18 189.92,811.90 L 183.78 822.29 L 180.30 815.90 C173.31,803.06 168.00,791.59 168.00,789.32 C168.00,787.04 167.82,787.00 157.48,787.00 L 146.95 787.00 L 150.92 792.02 C155.65,798.00 162.56,809.46 170.44,824.39 L 176.19 835.28 L 175.67 852.89 C175.38,862.58 174.84,871.96 174.46,873.75 L 173.77 877.00 L 183.39 877.00 C188.67,877.00 192.99,876.89 192.98,876.75 ZM 304.59 873.25 C303.08,864.74 302.06,844.05 302.03,821.11 L 302.00 796.72 L 310.25 797.27 C314.79,797.57 320.24,798.56 322.36,799.47 C324.48,800.37 326.35,800.98 326.51,800.81 C326.66,800.64 327.69,797.58 328.78,794.00 L 330.77 787.50 L 298.64 787.24 C280.97,787.09 266.00,787.17 265.38,787.41 C264.37,787.80 259.64,799.97 260.26,800.59 C260.39,800.73 262.95,800.20 265.94,799.43 C274.52,797.20 287.02,796.42 288.02,798.04 C289.92,801.11 288.56,864.59 286.39,874.25 L 285.77 877.00 L 295.51 877.00 L 305.26 877.00 L 304.59 873.25 ZM 473.58 875.25 C471.57,868.84 471.00,858.86 471.00,829.86 L 471.00 797.00 L 476.28 797.00 C481.08,797.00 488.85,798.58 493.20,800.45 C494.60,801.05 495.19,800.15 496.58,795.34 C497.51,792.13 498.49,788.93 498.75,788.24 C499.13,787.23 492.43,787.03 465.95,787.24 L 432.68 787.50 L 430.41 794.25 C429.16,797.96 428.21,800.99 428.32,800.99 C428.42,800.98 430.98,800.32 434.00,799.51 C437.02,798.70 443.44,797.74 448.25,797.38 L 457.00 796.71 L 456.98 825.11 C456.97,850.75 456.07,867.89 454.39,874.57 L 453.78 877.00 L 463.96 877.00 C473.19,877.00 474.08,876.84 473.58,875.25 ZM 631.62 874.64 C630.07,868.46 629.04,857.49 629.07,847.50 C629.10,836.84 629.16,836.58 630.80,838.98 C635.42,845.73 649.18,862.36 655.85,869.25 L 663.35 877.00 L 671.17 877.00 C675.48,877.00 679.00,876.64 679.00,876.20 C679.00,875.75 677.38,873.84 675.40,871.95 C668.25,865.10 648.00,838.74 648.00,836.28 C648.00,835.83 649.59,834.60 651.54,833.55 C656.59,830.83 662.67,823.86 663.92,819.35 C667.54,806.30 661.37,794.51 648.45,789.84 C643.65,788.10 639.53,787.59 627.14,787.22 C612.48,786.77 611.81,786.84 612.34,788.63 C615.94,800.78 615.99,863.76 612.41,875.25 C611.92,876.84 612.81,877.00 622.04,877.00 L 632.22 877.00 L 631.62 874.64 ZM 802.63 874.25 C801.05,867.04 799.94,847.86 800.20,832.50 L 800.50 815.50 L 816.95 837.50 C833.69,859.91 844.00,874.63 844.00,876.15 C844.00,876.62 848.08,877.00 853.07,877.00 C861.24,877.00 862.08,876.83 861.61,875.25 C857.99,863.30 857.94,805.10 861.53,789.25 C862.03,787.04 861.86,787.00 852.89,787.00 L 843.75 787.00 L 844.43 790.25 C846.74,801.25 848.25,854.06 846.25,853.97 C845.41,853.93 803.65,796.00 800.50,790.51 L 798.50 787.02 L 788.13 787.01 C776.44,787.00 776.87,786.11 784.24,795.06 L 788.00 799.63 L 787.97 829.06 C787.94,855.34 787.15,869.81 785.43,875.21 C784.92,876.84 785.68,877.00 794.05,877.00 L 803.23 877.00 L 802.63 874.25 ZM 931.67 868.60 C933.53,864.26 934.90,860.57 934.73,860.40 C934.57,860.23 931.40,861.19 927.69,862.54 C921.48,864.79 908.05,866.97 900.25,866.99 L 897.00 867.00 L 897.00 851.36 L 897.00 835.72 L 903.43 836.38 C906.97,836.75 911.75,837.71 914.06,838.52 C916.37,839.33 918.38,840.00 918.54,840.00 C918.94,840.00 926.00,827.31 926.00,826.59 C926.00,826.26 919.47,826.00 911.50,826.00 L 897.00 826.00 L 897.00 811.50 L 897.00 797.00 L 904.75 797.03 C909.59,797.05 914.49,797.75 917.81,798.90 L 923.11 800.73 L 926.57 793.87 L 930.03 787.00 L 905.09 787.00 L 880.16 787.00 L 881.33 790.75 C882.72,795.20 882.99,863.45 881.65,871.77 L 880.81 877.04 L 904.56 876.77 L 928.30 876.50 L 931.67 868.60 ZM 1044.51 873.75 C1044.12,871.96 1043.58,853.96 1043.32,833.75 L 1042.85 797.00 L 1049.17 797.03 C1052.70,797.05 1057.93,797.90 1060.99,798.96 C1064.01,800.00 1066.54,800.77 1066.60,800.68 C1066.67,800.58 1067.53,798.03 1068.51,795.00 C1069.49,791.97 1070.50,788.93 1070.76,788.24 C1071.13,787.23 1064.43,787.03 1037.95,787.24 L 1004.67 787.50 L 1002.91 792.50 C999.99,800.82 1000.07,800.96 1006.75,799.38 C1009.91,798.63 1016.21,797.72 1020.75,797.36 L 1029.00 796.70 L 1028.99 826.10 C1028.99,852.99 1028.24,867.22 1026.46,874.32 L 1025.78 877.00 L 1035.51 877.00 L 1045.23 877.00 L 1044.51 873.75 ZM 588.81 735.60 C596.24,721.22 606.66,713.71 629.88,705.98 C654.82,697.67 677.28,694.79 716.50,694.86 C787.18,694.99 838.67,700.89 958.27,722.56 C999.44,730.02 1020.92,733.40 1036.50,734.88 C1055.31,736.67 1067.74,737.24 1068.30,736.33 C1068.60,735.85 1065.89,731.86 1062.29,727.48 C1058.69,723.09 1047.07,708.92 1036.47,696.00 C1025.87,683.08 1009.61,663.28 1000.33,652.00 C982.80,630.71 935.69,573.39 918.55,552.50 C913.14,545.90 907.46,539.06 905.93,537.30 L 903.16 534.11 L 879.33 531.99 C866.22,530.82 854.50,529.66 853.27,529.42 C850.99,528.96 848.27,525.59 836.82,509.00 C824.28,490.83 797.49,452.36 795.49,449.65 L 793.47 446.93 L 770.99 449.50 C693.25,458.41 657.37,467.17 613.50,487.95 C592.58,497.86 573.96,510.36 559.28,524.33 L 553.07 530.25 L 545.79 523.51 C526.26,505.43 503.00,491.29 473.00,479.27 C448.48,469.45 432.77,464.88 405.50,459.63 C378.14,454.37 311.86,445.95 311.27,447.67 C311.02,448.41 277.25,497.17 261.01,520.25 C257.18,525.69 254.02,529.16 252.67,529.43 C251.48,529.66 242.40,530.58 232.50,531.47 C222.60,532.36 211.74,533.35 208.36,533.67 L 202.22 534.25 L 194.29 543.88 C189.94,549.17 176.02,566.10 163.37,581.50 C150.73,596.90 125.58,627.50 107.51,649.50 C89.43,671.50 69.88,695.29 64.07,702.37 C58.26,709.45 49.79,719.70 45.25,725.15 C40.71,730.61 37.00,735.55 37.00,736.14 C37.00,736.89 40.75,737.01 49.25,736.54 C75.70,735.08 94.13,732.37 164.96,719.50 C265.34,701.25 322.63,694.97 389.50,694.86 C419.04,694.81 434.55,696.05 454.34,700.05 C466.92,702.60 485.50,708.71 494.62,713.31 C504.22,718.16 515.17,729.74 519.09,739.22 L 520.24 742.00 L 552.87 742.00 L 585.50 741.99 L 588.81 735.60 ZM 500.72 438.75 C501.86,437.51 506.27,429.52 510.53,421.00 C519.43,403.14 527.79,390.35 553.32,355.52 C571.72,330.41 576.41,325.44 579.40,327.91 C580.51,328.84 580.06,330.40 576.91,336.67 C574.80,340.87 572.77,346.37 572.39,348.89 C571.01,358.10 574.73,377.30 582.20,399.50 C587.02,413.82 591.22,422.92 597.62,432.89 L 602.36 440.28 L 611.43 439.66 C622.32,438.93 653.91,433.35 674.11,428.60 C696.00,423.45 708.54,417.56 716.89,408.50 C719.11,406.09 721.24,402.88 721.62,401.36 C722.01,399.84 722.01,373.60 721.64,343.05 L 720.97 287.50 L 759.77 267.79 L 798.56 248.08 L 798.69 235.23 C798.84,220.41 800.09,216.14 805.19,213.03 C809.04,210.68 818.96,210.26 823.00,212.28 C826.97,214.26 829.00,219.49 829.00,227.75 C829.00,231.74 829.29,235.00 829.64,235.00 C831.08,235.00 863.67,217.57 865.75,215.69 C866.99,214.57 868.00,212.82 868.00,211.81 C868.00,207.06 861.74,203.21 819.50,181.91 C751.94,147.86 731.85,137.06 732.45,135.15 C732.73,134.24 734.36,126.75 736.08,118.50 C739.10,103.96 739.18,102.93 738.64,85.00 C737.96,62.44 735.25,46.41 732.57,49.09 C732.32,49.35 731.91,57.42 731.67,67.03 C731.01,92.71 727.91,104.65 713.61,136.54 C705.49,154.65 697.37,168.70 685.12,185.80 C674.52,200.60 670.43,205.43 645.13,232.92 C633.78,245.25 616.07,264.51 605.77,275.71 C582.38,301.15 553.84,335.96 524.77,374.54 C509.73,394.50 498.65,413.43 490.93,432.35 C488.60,438.08 488.59,438.23 490.47,439.60 C493.41,441.75 498.34,441.34 500.72,438.75 ZM 475.00 437.62 C475.00,436.86 473.85,433.73 472.45,430.67 C467.28,419.38 463.62,399.60 460.94,368.50 C459.44,351.18 460.73,339.48 468.19,302.50 C472.53,280.99 473.23,275.89 473.21,266.00 C473.18,247.13 469.24,235.96 455.18,214.83 C432.60,180.91 414.92,146.71 409.54,126.56 C406.88,116.59 404.01,99.45 403.98,93.38 C403.98,91.25 403.59,88.90 403.13,88.18 C402.16,86.64 401.29,92.93 400.34,108.49 C399.92,115.36 399.15,119.85 398.10,121.56 C396.53,124.11 386.22,129.58 275.50,186.64 C238.11,205.91 234.00,208.98 238.66,214.21 C239.67,215.34 270.18,231.08 306.45,249.17 C342.72,267.26 373.88,283.20 375.69,284.57 C377.49,285.95 379.52,288.08 380.19,289.29 C381.09,290.93 381.44,304.78 381.56,343.00 C381.74,398.61 381.87,400.06 387.26,408.06 C392.45,415.77 406.59,423.88 423.00,428.58 C434.38,431.83 467.17,438.78 471.75,438.91 C473.89,438.97 475.00,438.53 475.00,437.62 ZM 833.55 404.47 C843.66,399.42 845.94,393.60 841.93,383.06 C839.62,376.98 827.45,337.05 823.97,324.15 L 821.73 315.79 L 824.28 313.65 C830.44,308.47 831.84,298.87 827.46,291.93 C826.06,289.72 824.26,287.65 823.46,287.35 C822.23,286.87 822.00,282.36 822.00,258.53 C822.00,231.45 821.91,230.16 819.93,227.63 C817.00,223.91 811.00,223.91 808.07,227.63 C806.09,230.16 806.00,231.46 806.00,258.03 L 806.00 285.80 L 802.59 289.21 C795.79,296.01 795.81,306.26 802.65,312.70 L 806.09 315.95 L 794.46 355.18 C783.07,393.57 782.86,394.48 784.38,397.67 C787.40,404.01 801.15,408.10 818.05,407.68 C826.37,407.48 828.36,407.06 833.55,404.47 ZM 562.21 220.87 C588.00,205.30 616.81,182.91 649.00,153.42 C683.37,121.93 695.74,106.69 709.76,78.50 C716.52,64.90 716.44,62.60 709.50,71.00 C707.45,73.47 699.05,82.82 690.81,91.78 L 675.85 108.05 L 651.17 95.40 C637.60,88.44 623.35,81.06 619.50,79.01 C613.28,75.68 576.97,56.86 566.50,51.53 C563.43,49.97 560.64,49.51 554.50,49.55 L 546.50 49.60 L 492.07 75.84 C462.14,90.27 437.11,101.87 436.46,101.62 C435.80,101.37 430.09,94.49 423.75,86.33 C411.28,70.27 408.00,66.70 408.00,69.19 C408.00,73.96 463.38,157.74 483.56,183.50 C494.41,197.35 519.36,220.69 534.00,230.70 L 538.50 233.78 L 545.50 230.25 C549.35,228.32 556.87,224.09 562.21,220.87 ZM 543.99 866.12 C535.80,863.44 527.38,855.33 523.31,846.22 C519.93,838.64 519.04,825.79 521.35,817.94 C523.66,810.12 529.34,803.16 536.33,799.58 C543.94,795.69 555.02,795.38 562.21,798.86 C568.19,801.75 575.45,809.59 578.82,816.78 C581.24,821.94 581.50,823.62 581.50,834.00 C581.50,844.14 581.22,846.03 579.14,850.00 C576.09,855.83 570.54,861.63 565.50,864.25 C561.15,866.51 548.54,867.61 543.99,866.12 ZM 629.00 814.02 L 629.00 796.00 L 631.25 796.01 C645.03,796.04 653.96,809.31 648.03,820.95 C644.99,826.90 641.21,829.34 631.75,831.43 L 629.00 832.04 L 629.00 814.02 ZM 89.73 709.75 C94.70,703.37 179.94,595.21 188.44,584.50 C194.54,576.80 203.51,565.49 208.35,559.37 C218.30,546.79 216.59,547.62 234.90,546.39 L 245.31 545.69 L 242.31 550.10 C240.67,552.52 229.95,568.22 218.49,585.00 C176.30,646.80 166.25,661.56 164.42,664.41 L 162.56 667.33 L 166.81 666.65 C204.60,660.60 246.30,655.57 281.50,652.81 C305.69,650.92 369.61,651.20 389.59,653.28 C442.04,658.77 479.90,670.19 508.65,689.20 C518.19,695.51 520.20,697.66 513.35,694.20 C496.20,685.56 464.16,677.89 433.00,674.97 C412.27,673.02 343.58,673.94 318.50,676.50 C315.75,676.78 304.05,677.93 292.50,679.05 C254.32,682.77 215.58,688.63 150.50,700.54 C112.62,707.47 92.29,710.99 90.13,710.99 C89.18,711.00 89.05,710.62 89.73,709.75 ZM 1002.00 708.89 C884.96,687.47 852.77,682.50 799.00,677.55 C758.89,673.86 698.57,672.61 674.00,674.96 C641.83,678.04 615.23,684.15 595.50,693.00 C591.93,694.60 589.01,695.60 589.01,695.21 C589.03,693.99 601.96,685.84 612.46,680.42 C668.72,651.38 759.49,643.75 878.00,658.08 C892.81,659.88 929.32,664.97 939.41,666.66 C942.16,667.12 943.11,666.98 942.62,666.20 C941.94,665.09 924.61,639.68 883.62,579.69 C871.67,562.20 861.65,547.24 861.34,546.45 C860.92,545.34 861.45,545.12 863.64,545.49 C865.22,545.76 871.45,546.43 877.50,546.99 C884.34,547.62 888.88,548.50 889.50,549.31 C890.42,550.53 916.85,584.00 988.24,674.38 C1003.49,693.70 1015.98,709.84 1015.99,710.25 C1016.01,711.29 1014.07,711.10 1002.00,708.89 ZM 542.83 688.14 C542.18,686.47 530.47,676.83 523.54,672.26 C513.74,665.81 492.60,655.91 479.50,651.66 C439.53,638.67 391.26,632.68 326.50,632.69 C286.80,632.69 222.65,635.95 209.60,638.63 C207.32,639.10 206.82,638.91 207.26,637.76 C207.99,635.85 220.56,616.72 301.84,493.77 L 321.50 464.04 L 326.00 464.03 C344.27,463.99 403.55,473.66 434.00,481.64 C480.52,493.84 531.49,524.10 542.24,545.90 L 544.50 550.50 L 544.78 619.75 C545.04,681.92 544.72,693.00 542.83,688.14 ZM 561.01 619.75 L 561.02 551.50 L 563.56 546.03 C568.81,534.76 589.06,518.05 613.00,505.24 C639.52,491.05 665.78,482.06 701.00,475.10 C727.99,469.78 769.86,463.94 780.00,464.08 L 784.50 464.15 L 800.67 488.82 C809.56,502.40 830.06,533.53 846.21,558.00 C892.76,628.51 897.91,636.44 897.89,637.50 C897.88,638.05 897.11,638.42 896.19,638.32 C830.85,631.55 749.94,630.83 700.00,636.59 C640.57,643.44 596.51,658.80 568.82,682.33 C565.15,685.45 561.89,688.00 561.57,688.00 C561.26,688.00 561.00,657.29 561.01,619.75 Z" fill="rgb(254,254,254)"/>
</g>
</svg>